<mxfile host="65bd71144e">
    <diagram id="ym7okFSc1OpfDm9bM9Ux" name="Page-1">
        <mxGraphModel dx="693" dy="317" grid="1" gridSize="10" guides="1" tooltips="1" connect="1" arrows="1" fold="1" page="1" pageScale="1" pageWidth="827" pageHeight="1169" math="0" shadow="0">
            <root>
                <mxCell id="0"/>
                <mxCell id="1" parent="0"/>
                <mxCell id="4" value="&lt;span style=&quot;color: rgb(240, 255, 26);&quot;&gt;Java Script Execution Context&lt;/span&gt;" style="text;strokeColor=none;align=center;fillColor=none;html=1;verticalAlign=middle;whiteSpace=wrap;rounded=0;labelBackgroundColor=none;strokeWidth=0;fontSize=25;fontColor=#ffe01a;" parent="1" vertex="1">
                    <mxGeometry x="150" y="20" width="580" height="50" as="geometry"/>
                </mxCell>
                <mxCell id="6" value="" style="endArrow=none;html=1;fillColor=#e3c800;strokeColor=#B09500;" parent="1" edge="1">
                    <mxGeometry width="50" height="50" relative="1" as="geometry">
                        <mxPoint x="280" y="60" as="sourcePoint"/>
                        <mxPoint x="400" y="60" as="targetPoint"/>
                    </mxGeometry>
                </mxCell>
                <mxCell id="8" value="Single threaded Language" style="text;strokeColor=none;align=center;fillColor=none;html=1;verticalAlign=middle;whiteSpace=wrap;rounded=0;" parent="1" vertex="1">
                    <mxGeometry x="280" y="90" width="90" height="50" as="geometry"/>
                </mxCell>
                <mxCell id="13" value="" style="edgeStyle=none;orthogonalLoop=1;jettySize=auto;html=1;entryX=0.333;entryY=0.2;entryDx=0;entryDy=0;entryPerimeter=0;" parent="1" target="8" edge="1">
                    <mxGeometry width="80" relative="1" as="geometry">
                        <mxPoint x="310" y="60" as="sourcePoint"/>
                        <mxPoint x="510" y="170" as="targetPoint"/>
                        <Array as="points"/>
                    </mxGeometry>
                </mxCell>
                <mxCell id="20" value="" style="group" parent="1" vertex="1" connectable="0">
                    <mxGeometry x="470" y="75" width="210" height="80" as="geometry"/>
                </mxCell>
                <mxCell id="14" value="" style="edgeStyle=orthogonalEdgeStyle;orthogonalLoop=1;jettySize=auto;html=1;" parent="20" edge="1">
                    <mxGeometry width="80" relative="1" as="geometry">
                        <mxPoint y="-10" as="sourcePoint"/>
                        <mxPoint x="50" y="10" as="targetPoint"/>
                        <Array as="points">
                            <mxPoint y="10"/>
                        </Array>
                    </mxGeometry>
                </mxCell>
                <mxCell id="15" value="Global Execution Context" style="text;strokeColor=none;align=center;fillColor=none;html=1;verticalAlign=middle;whiteSpace=wrap;rounded=0;" parent="20" vertex="1">
                    <mxGeometry x="50" width="160" height="20" as="geometry"/>
                </mxCell>
                <mxCell id="16" value="" style="edgeStyle=orthogonalEdgeStyle;orthogonalLoop=1;jettySize=auto;html=1;" parent="20" edge="1">
                    <mxGeometry width="80" relative="1" as="geometry">
                        <mxPoint y="20" as="sourcePoint"/>
                        <mxPoint x="50" y="40" as="targetPoint"/>
                        <Array as="points">
                            <mxPoint y="40"/>
                        </Array>
                    </mxGeometry>
                </mxCell>
                <mxCell id="17" value="Function Execution Context" style="text;strokeColor=none;align=center;fillColor=none;html=1;verticalAlign=middle;whiteSpace=wrap;rounded=0;" parent="20" vertex="1">
                    <mxGeometry x="50" y="30" width="160" height="20" as="geometry"/>
                </mxCell>
                <mxCell id="18" value="" style="edgeStyle=orthogonalEdgeStyle;orthogonalLoop=1;jettySize=auto;html=1;" parent="20" edge="1">
                    <mxGeometry width="80" relative="1" as="geometry">
                        <mxPoint y="50" as="sourcePoint"/>
                        <mxPoint x="50" y="70" as="targetPoint"/>
                        <Array as="points">
                            <mxPoint y="70"/>
                        </Array>
                    </mxGeometry>
                </mxCell>
                <mxCell id="19" value="Eval Execution Context" style="text;strokeColor=none;align=center;fillColor=none;html=1;verticalAlign=middle;whiteSpace=wrap;rounded=0;" parent="20" vertex="1">
                    <mxGeometry x="50" y="60" width="160" height="20" as="geometry"/>
                </mxCell>
                <mxCell id="21" value="Execution will happened in two phases" style="text;html=1;align=center;verticalAlign=middle;resizable=0;points=[];autosize=1;strokeColor=#6F0000;fillColor=#a20025;fontColor=#ffffff;gradientColor=none;rounded=1;arcSize=50;" vertex="1" parent="1">
                    <mxGeometry x="50" y="170" width="230" height="30" as="geometry"/>
                </mxCell>
                <mxCell id="22" value="" style="edgeStyle=orthogonalEdgeStyle;orthogonalLoop=1;jettySize=auto;html=1;" edge="1" parent="1">
                    <mxGeometry width="80" relative="1" as="geometry">
                        <mxPoint x="80" y="210" as="sourcePoint"/>
                        <mxPoint x="130" y="230" as="targetPoint"/>
                        <Array as="points">
                            <mxPoint x="80" y="230"/>
                        </Array>
                    </mxGeometry>
                </mxCell>
                <mxCell id="24" value="" style="edgeStyle=orthogonalEdgeStyle;orthogonalLoop=1;jettySize=auto;html=1;" edge="1" parent="1">
                    <mxGeometry width="80" relative="1" as="geometry">
                        <mxPoint x="80" y="240" as="sourcePoint"/>
                        <mxPoint x="130" y="260" as="targetPoint"/>
                        <Array as="points">
                            <mxPoint x="80" y="260"/>
                        </Array>
                    </mxGeometry>
                </mxCell>
                <mxCell id="25" value="Memory creation phase" style="text;strokeColor=none;align=center;fillColor=none;html=1;verticalAlign=middle;whiteSpace=wrap;rounded=0;fontColor=#FF6666;" vertex="1" parent="1">
                    <mxGeometry x="130" y="220" width="160" height="20" as="geometry"/>
                </mxCell>
                <mxCell id="26" value="Execution phase" style="text;strokeColor=none;align=center;fillColor=none;html=1;verticalAlign=middle;whiteSpace=wrap;rounded=0;labelBackgroundColor=default;fontColor=#FF6666;" vertex="1" parent="1">
                    <mxGeometry x="130" y="250" width="160" height="20" as="geometry"/>
                </mxCell>
                <mxCell id="27" value="&lt;div style=&quot;text-align: left; font-size: 14px;&quot;&gt;&lt;font style=&quot;font-size: 14px;&quot;&gt;let &lt;font style=&quot;font-size: 14px;&quot; color=&quot;#ffff33&quot;&gt;val1 &lt;/font&gt;=&amp;nbsp;&lt;font style=&quot;font-size: 14px;&quot; color=&quot;#990099&quot;&gt;&amp;nbsp;&lt;/font&gt;&lt;font style=&quot;font-size: 14px;&quot; color=&quot;#7f00ff&quot;&gt;10&lt;/font&gt;&lt;/font&gt;&lt;/div&gt;&lt;div style=&quot;text-align: left; font-size: 14px;&quot;&gt;&lt;font style=&quot;font-size: 14px;&quot;&gt;let &lt;font style=&quot;font-size: 14px;&quot; color=&quot;#ffff33&quot;&gt;val2 &lt;/font&gt;= &lt;font style=&quot;font-size: 14px;&quot; color=&quot;#9933ff&quot;&gt;5&lt;/font&gt;&lt;/font&gt;&lt;/div&gt;&lt;div style=&quot;text-align: left; font-size: 14px;&quot;&gt;&lt;font style=&quot;font-size: 14px;&quot;&gt;function &lt;font style=&quot;font-size: 14px;&quot; color=&quot;#006633&quot;&gt;addNum&lt;/font&gt;&lt;font style=&quot;font-size: 14px;&quot; color=&quot;#ffff33&quot;&gt;(num1, num2){&lt;/font&gt;&lt;/font&gt;&lt;/div&gt;&lt;div style=&quot;text-align: left; font-size: 14px;&quot;&gt;&lt;font style=&quot;font-size: 14px;&quot;&gt;let &lt;font style=&quot;font-size: 14px;&quot; color=&quot;#ffff33&quot;&gt;total &lt;/font&gt;= &lt;font style=&quot;font-size: 14px;&quot; color=&quot;#ffff33&quot;&gt;num1 &lt;/font&gt;&lt;font style=&quot;font-size: 14px;&quot;&gt;+&lt;/font&gt;&amp;nbsp;&lt;font style=&quot;font-size: 14px;&quot; color=&quot;#ffff33&quot;&gt;num2&lt;/font&gt;&lt;/font&gt;&lt;/div&gt;&lt;div style=&quot;text-align: left; font-size: 14px;&quot;&gt;&lt;font style=&quot;font-size: 14px;&quot;&gt;return &lt;font style=&quot;font-size: 14px;&quot; color=&quot;#ffff33&quot;&gt;total&lt;/font&gt;&lt;/font&gt;&lt;/div&gt;&lt;div style=&quot;text-align: left; font-size: 14px;&quot;&gt;&lt;font style=&quot;font-size: 14px;&quot; color=&quot;#ffff33&quot;&gt;}&lt;/font&gt;&lt;/div&gt;&lt;div style=&quot;text-align: left; font-size: 14px;&quot;&gt;&lt;font style=&quot;font-size: 14px;&quot;&gt;let &lt;font style=&quot;font-size: 14px;&quot; color=&quot;#ffff33&quot;&gt;result1 &lt;/font&gt;= &lt;font style=&quot;font-size: 14px;&quot; color=&quot;#006633&quot;&gt;addNum&lt;/font&gt;&lt;font style=&quot;font-size: 14px;&quot; color=&quot;#ffff33&quot;&gt;(val1, val2)&lt;/font&gt;&lt;/font&gt;&lt;/div&gt;&lt;div style=&quot;text-align: left; font-size: 14px;&quot;&gt;&lt;font style=&quot;font-size: 14px;&quot;&gt;let &lt;font style=&quot;font-size: 14px;&quot; color=&quot;#ffff33&quot;&gt;result2 &lt;/font&gt;= &lt;font style=&quot;font-size: 14px;&quot; color=&quot;#006633&quot;&gt;addNum&lt;/font&gt;&lt;font style=&quot;font-size: 14px;&quot; color=&quot;#ffffff&quot;&gt;(&lt;/font&gt;&lt;font style=&quot;font-size: 14px;&quot; color=&quot;#9933ff&quot;&gt;10&lt;/font&gt;&lt;font style=&quot;font-size: 14px;&quot; color=&quot;#ffffff&quot;&gt;, &lt;/font&gt;&lt;font style=&quot;font-size: 14px;&quot; color=&quot;#9933ff&quot;&gt;2&lt;/font&gt;&lt;font style=&quot;font-size: 14px;&quot; color=&quot;#ffffff&quot;&gt;)&lt;/font&gt;&lt;/font&gt;&lt;/div&gt;" style="whiteSpace=wrap;html=1;rounded=1;labelBackgroundColor=default;sketch=0;fontColor=#FF6666;fillColor=none;gradientColor=none;" vertex="1" parent="1">
                    <mxGeometry x="480" y="185" width="212" height="150" as="geometry"/>
                </mxCell>
                <mxCell id="38" value="" style="edgeStyle=none;html=1;fontSize=14;fontColor=#FFFFFF;" edge="1" parent="1" source="34" target="37">
                    <mxGeometry relative="1" as="geometry"/>
                </mxCell>
                <mxCell id="34" value="&lt;font color=&quot;#ffffff&quot;&gt;Steps of execution&lt;/font&gt;" style="whiteSpace=wrap;html=1;rounded=1;labelBackgroundColor=default;sketch=0;fontSize=14;fontColor=#FF6666;fillColor=none;gradientColor=none;arcSize=50;" vertex="1" parent="1">
                    <mxGeometry x="490" y="370" width="190" height="40" as="geometry"/>
                </mxCell>
                <mxCell id="40" value="" style="edgeStyle=none;html=1;fontSize=14;fontColor=#FFFFFF;" edge="1" parent="1" source="37" target="39">
                    <mxGeometry relative="1" as="geometry"/>
                </mxCell>
                <mxCell id="37" value="&lt;span style=&quot;background-color: rgb(24, 20, 29);&quot;&gt;1. Global Execution&lt;/span&gt;" style="text;html=1;align=center;verticalAlign=middle;resizable=0;points=[];autosize=1;strokeColor=none;fillColor=none;fontSize=14;fontColor=#FFFFFF;" vertex="1" parent="1">
                    <mxGeometry x="515" y="440" width="140" height="30" as="geometry"/>
                </mxCell>
                <mxCell id="39" value="&lt;span style=&quot;background-color: rgb(24, 20, 29);&quot;&gt;2. Memory phase&lt;br&gt;&lt;br&gt;&lt;br&gt;&lt;/span&gt;" style="text;html=1;align=center;verticalAlign=middle;resizable=0;points=[];autosize=1;strokeColor=none;fillColor=none;fontSize=14;fontColor=#FFFFFF;" vertex="1" parent="1">
                    <mxGeometry x="521" y="485" width="130" height="60" as="geometry"/>
                </mxCell>
            </root>
        </mxGraphModel>
    </diagram>
</mxfile>